<svg xmlns="http://www.w3.org/2000/svg" xmlns:xlink="http://www.w3.org/1999/xlink" width="494" zoomAndPan="magnify" viewBox="0 0 370.5 109.499999" height="146" preserveAspectRatio="xMidYMid meet" version="1.0"><defs><g/><clipPath id="7270520b1a"><path d="M 0.59375 0 L 369.410156 0 L 369.410156 109.003906 L 0.59375 109.003906 Z M 0.59375 0 " clip-rule="nonzero"/></clipPath><clipPath id="0c5f55a6e4"><path d="M 1 39 L 64 39 L 64 93.679688 L 1 93.679688 Z M 1 39 " clip-rule="nonzero"/></clipPath><clipPath id="37c8b2e0c1"><path d="M 0.59375 17.527344 L 64 17.527344 L 64 93.679688 L 0.59375 93.679688 Z M 0.59375 17.527344 " clip-rule="nonzero"/></clipPath><clipPath id="c81580e56f"><rect x="0" width="265" y="0" height="38"/></clipPath><clipPath id="f2a198a1e5"><rect x="0" width="134" y="0" height="49"/></clipPath></defs><g clip-path="url(#7270520b1a)"><path fill="#ffffff" d="M 0.59375 0 L 369.410156 0 L 369.410156 109.003906 L 0.59375 109.003906 Z M 0.59375 0 " fill-opacity="1" fill-rule="nonzero"/></g><g clip-path="url(#0c5f55a6e4)"><path fill="#ffffff" d="M 56.378906 93.164062 L 8.367188 93.164062 C 4.164062 93.164062 0.890625 89.511719 1.355469 85.332031 L 6.402344 39.820312 L 58.347656 39.820312 L 63.394531 85.332031 C 63.855469 89.511719 60.585938 93.164062 56.378906 93.164062 Z M 56.378906 93.164062 " fill-opacity="1" fill-rule="nonzero"/></g><path fill="#844741" d="M 43.585938 59.441406 C 42.589844 58.085938 41.238281 57.273438 39.570312 57.058594 C 37.34375 56.773438 35.410156 57.445312 33.792969 58.996094 C 33.167969 59.589844 32.707031 60.304688 32.484375 61.148438 C 32.449219 61.273438 32.429688 61.402344 32.402344 61.542969 C 32.375 61.402344 32.351562 61.273438 32.320312 61.148438 C 32.097656 60.304688 31.636719 59.589844 31.011719 58.996094 C 29.394531 57.445312 27.460938 56.773438 25.234375 57.058594 C 23.5625 57.273438 22.214844 58.085938 21.21875 59.441406 C 20.105469 60.953125 19.765625 62.671875 19.949219 64.511719 C 20.972656 72.546875 28.8125 77.597656 32.269531 79.03125 C 32.316406 79.0625 32.484375 79.0625 32.535156 79.03125 C 35.996094 77.597656 43.832031 72.546875 44.855469 64.511719 C 45.039062 62.671875 44.695312 60.953125 43.585938 59.441406 Z M 43.585938 59.441406 " fill-opacity="1" fill-rule="nonzero"/><g clip-path="url(#37c8b2e0c1)"><path fill="#ffffff" d="M 63.917969 85.273438 L 58.871094 39.761719 C 58.839844 39.492188 58.617188 39.292969 58.347656 39.292969 L 46.160156 39.292969 L 44.886719 28.503906 C 44.148438 22.246094 38.835938 17.527344 32.535156 17.527344 C 26.234375 17.527344 20.921875 22.246094 20.183594 28.503906 L 18.910156 39.292969 L 6.402344 39.292969 C 6.132812 39.292969 5.90625 39.492188 5.875 39.761719 L 0.832031 85.273438 C 0.59375 87.414062 1.28125 89.5625 2.71875 91.167969 C 4.15625 92.773438 6.214844 93.691406 8.367188 93.691406 L 56.378906 93.691406 C 58.53125 93.691406 60.59375 92.773438 62.027344 91.167969 C 63.464844 89.5625 64.152344 87.414062 63.914062 85.273438 Z M 21.234375 28.628906 C 21.90625 22.902344 26.769531 18.582031 32.535156 18.582031 C 38.304688 18.582031 43.164062 22.902344 43.839844 28.628906 L 45.097656 39.292969 L 19.972656 39.292969 Z M 61.246094 90.464844 C 60.007812 91.84375 58.234375 92.636719 56.378906 92.636719 L 8.367188 92.636719 C 6.515625 92.636719 4.742188 91.84375 3.503906 90.464844 C 2.269531 89.082031 1.675781 87.234375 1.878906 85.390625 L 6.871094 40.34375 L 18.789062 40.34375 L 18.136719 45.871094 C 18.101562 46.160156 18.308594 46.421875 18.597656 46.453125 C 18.617188 46.457031 18.640625 46.460938 18.660156 46.460938 C 18.925781 46.460938 19.152344 46.261719 19.183594 45.992188 L 19.851562 40.34375 L 45.222656 40.34375 L 45.890625 45.992188 C 45.921875 46.28125 46.183594 46.488281 46.472656 46.453125 C 46.761719 46.421875 46.96875 46.160156 46.9375 45.871094 L 46.285156 40.34375 L 57.875 40.34375 L 62.867188 85.386719 C 63.070312 87.230469 62.480469 89.082031 61.242188 90.460938 Z M 61.246094 90.464844 " fill-opacity="1" fill-rule="nonzero"/></g><path fill="#ffffff" d="M 39.636719 56.539062 C 37.269531 56.234375 35.183594 56.933594 33.425781 58.613281 C 33 59.019531 32.660156 59.460938 32.402344 59.9375 C 32.140625 59.460938 31.800781 59.019531 31.375 58.613281 C 29.621094 56.933594 27.53125 56.234375 25.167969 56.539062 C 23.355469 56.769531 21.886719 57.640625 20.792969 59.128906 C 19.675781 60.648438 19.214844 62.476562 19.425781 64.578125 C 20.453125 72.667969 28.136719 77.886719 32.0625 79.515625 C 32.160156 79.558594 32.28125 79.582031 32.402344 79.582031 C 32.519531 79.582031 32.640625 79.558594 32.738281 79.515625 C 36.664062 77.886719 44.347656 72.671875 45.378906 64.566406 C 45.585938 62.480469 45.125 60.648438 44.011719 59.128906 C 42.917969 57.640625 41.445312 56.769531 39.632812 56.539062 Z M 44.332031 64.445312 C 43.367188 72.011719 36.148438 76.933594 32.402344 78.515625 C 28.652344 76.933594 21.433594 72.011719 20.476562 64.460938 C 20.289062 62.613281 20.671875 61.074219 21.644531 59.753906 C 22.558594 58.507812 23.789062 57.777344 25.300781 57.582031 C 25.609375 57.542969 25.910156 57.523438 26.207031 57.523438 C 27.875 57.523438 29.363281 58.144531 30.648438 59.375 C 31.234375 59.9375 31.625 60.578125 31.8125 61.285156 C 31.835938 61.378906 31.855469 61.472656 31.875 61.574219 L 31.886719 61.644531 C 31.933594 61.890625 32.152344 62.070312 32.402344 62.070312 C 32.65625 62.070312 32.875 61.890625 32.921875 61.644531 L 32.933594 61.578125 C 32.953125 61.476562 32.96875 61.378906 32.996094 61.285156 C 33.183594 60.578125 33.574219 59.9375 34.15625 59.375 C 35.671875 57.929688 37.472656 57.324219 39.503906 57.585938 C 41.019531 57.777344 42.25 58.507812 43.164062 59.753906 C 44.136719 61.078125 44.515625 62.613281 44.332031 64.445312 Z M 44.332031 64.445312 " fill-opacity="1" fill-rule="nonzero"/><g transform="matrix(1, 0, 0, 1, 95, 61)"><g clip-path="url(#c81580e56f)"><g fill="#ffffff" fill-opacity="1"><g transform="translate(0.939662, 29.303718)"><g><path d="M 9.421875 0.328125 C 8.492188 0.328125 7.695312 0.160156 7.03125 -0.171875 C 6.375 -0.503906 5.832031 -0.921875 5.40625 -1.421875 C 4.976562 -1.929688 4.644531 -2.457031 4.40625 -3 L 4.234375 -3 L 4.234375 0 L 2.34375 0 L 2.34375 -21.578125 L 4.28125 -21.578125 L 4.28125 -12.9375 L 4.421875 -12.9375 C 4.648438 -13.46875 4.972656 -13.984375 5.390625 -14.484375 C 5.816406 -14.984375 6.359375 -15.394531 7.015625 -15.71875 C 7.671875 -16.050781 8.46875 -16.21875 9.40625 -16.21875 C 10.726562 -16.21875 11.890625 -15.867188 12.890625 -15.171875 C 13.890625 -14.484375 14.671875 -13.519531 15.234375 -12.28125 C 15.796875 -11.039062 16.078125 -9.601562 16.078125 -7.96875 C 16.078125 -6.300781 15.796875 -4.847656 15.234375 -3.609375 C 14.679688 -2.367188 13.90625 -1.398438 12.90625 -0.703125 C 11.90625 -0.015625 10.742188 0.328125 9.421875 0.328125 Z M 9.171875 -1.4375 C 10.210938 -1.4375 11.097656 -1.71875 11.828125 -2.28125 C 12.566406 -2.84375 13.128906 -3.617188 13.515625 -4.609375 C 13.910156 -5.597656 14.109375 -6.722656 14.109375 -7.984375 C 14.109375 -9.234375 13.914062 -10.34375 13.53125 -11.3125 C 13.144531 -12.289062 12.582031 -13.054688 11.84375 -13.609375 C 11.101562 -14.171875 10.210938 -14.453125 9.171875 -14.453125 C 8.128906 -14.453125 7.238281 -14.175781 6.5 -13.625 C 5.769531 -13.082031 5.210938 -12.320312 4.828125 -11.34375 C 4.441406 -10.375 4.25 -9.253906 4.25 -7.984375 C 4.25 -6.691406 4.441406 -5.550781 4.828125 -4.5625 C 5.210938 -3.582031 5.769531 -2.816406 6.5 -2.265625 C 7.238281 -1.710938 8.128906 -1.4375 9.171875 -1.4375 Z M 9.171875 -1.4375 "/></g></g></g><g fill="#ffffff" fill-opacity="1"><g transform="translate(17.918487, 29.303718)"><g><path d="M 1.96875 5.875 L 2.375 4.1875 L 2.875 4.25 C 3.40625 4.382812 3.882812 4.40625 4.3125 4.3125 C 4.738281 4.226562 5.117188 4 5.453125 3.625 C 5.796875 3.25 6.097656 2.703125 6.359375 1.984375 L 7.0625 0.09375 L 0.890625 -15.984375 L 3 -15.984375 L 6.703125 -6 C 7.046875 -5.113281 7.347656 -4.234375 7.609375 -3.359375 C 7.867188 -2.492188 8.132812 -1.632812 8.40625 -0.78125 L 7.75 -0.78125 C 8.019531 -1.632812 8.285156 -2.492188 8.546875 -3.359375 C 8.816406 -4.234375 9.113281 -5.113281 9.4375 -6 L 13.15625 -15.984375 L 15.265625 -15.984375 L 8.0625 2.6875 C 7.757812 3.46875 7.398438 4.113281 6.984375 4.625 C 6.578125 5.144531 6.101562 5.523438 5.5625 5.765625 C 5.019531 6.015625 4.410156 6.140625 3.734375 6.140625 C 3.367188 6.140625 3.035156 6.113281 2.734375 6.0625 C 2.429688 6.007812 2.175781 5.945312 1.96875 5.875 Z M 1.96875 5.875 "/></g></g></g><g fill="#ffffff" fill-opacity="1"><g transform="translate(34.057895, 29.303718)"><g/></g></g><g fill="#ffffff" fill-opacity="1"><g transform="translate(42.120362, 29.303718)"><g><path d="M 11.171875 0.296875 C 9.328125 0.296875 7.695312 -0.160156 6.28125 -1.078125 C 4.863281 -1.992188 3.753906 -3.28125 2.953125 -4.9375 C 2.148438 -6.59375 1.75 -8.539062 1.75 -10.78125 C 1.75 -13.019531 2.148438 -14.96875 2.953125 -16.625 C 3.753906 -18.28125 4.863281 -19.566406 6.28125 -20.484375 C 7.695312 -21.398438 9.328125 -21.859375 11.171875 -21.859375 C 12.335938 -21.859375 13.40625 -21.679688 14.375 -21.328125 C 15.34375 -20.972656 16.195312 -20.472656 16.9375 -19.828125 C 17.6875 -19.179688 18.296875 -18.425781 18.765625 -17.5625 C 19.242188 -16.707031 19.578125 -15.773438 19.765625 -14.765625 L 17.703125 -14.765625 C 17.554688 -15.523438 17.289062 -16.21875 16.90625 -16.84375 C 16.53125 -17.46875 16.054688 -18.015625 15.484375 -18.484375 C 14.921875 -18.953125 14.273438 -19.316406 13.546875 -19.578125 C 12.828125 -19.835938 12.035156 -19.96875 11.171875 -19.96875 C 9.785156 -19.96875 8.53125 -19.609375 7.40625 -18.890625 C 6.289062 -18.171875 5.398438 -17.128906 4.734375 -15.765625 C 4.078125 -14.398438 3.75 -12.738281 3.75 -10.78125 C 3.75 -8.8125 4.078125 -7.144531 4.734375 -5.78125 C 5.398438 -4.414062 6.296875 -3.378906 7.421875 -2.671875 C 8.546875 -1.960938 9.796875 -1.609375 11.171875 -1.609375 C 12.035156 -1.609375 12.828125 -1.738281 13.546875 -2 C 14.273438 -2.257812 14.921875 -2.625 15.484375 -3.09375 C 16.054688 -3.5625 16.53125 -4.109375 16.90625 -4.734375 C 17.289062 -5.367188 17.554688 -6.0625 17.703125 -6.8125 L 19.765625 -6.8125 C 19.585938 -5.8125 19.257812 -4.882812 18.78125 -4.03125 C 18.3125 -3.175781 17.703125 -2.421875 16.953125 -1.765625 C 16.210938 -1.117188 15.351562 -0.613281 14.375 -0.25 C 13.40625 0.113281 12.335938 0.296875 11.171875 0.296875 Z M 11.171875 0.296875 "/></g></g></g><g fill="#ffffff" fill-opacity="1"><g transform="translate(63.528599, 29.303718)"><g><path d="M 8.59375 0.328125 C 7.207031 0.328125 5.976562 -0.0195312 4.90625 -0.71875 C 3.832031 -1.414062 2.992188 -2.382812 2.390625 -3.625 C 1.785156 -4.875 1.484375 -6.304688 1.484375 -7.921875 C 1.484375 -9.554688 1.785156 -11 2.390625 -12.25 C 2.992188 -13.5 3.832031 -14.472656 4.90625 -15.171875 C 5.976562 -15.867188 7.207031 -16.21875 8.59375 -16.21875 C 10.007812 -16.21875 11.25 -15.867188 12.3125 -15.171875 C 13.382812 -14.472656 14.21875 -13.5 14.8125 -12.25 C 15.414062 -11 15.71875 -9.554688 15.71875 -7.921875 C 15.71875 -6.304688 15.414062 -4.875 14.8125 -3.625 C 14.21875 -2.382812 13.382812 -1.414062 12.3125 -0.71875 C 11.25 -0.0195312 10.007812 0.328125 8.59375 0.328125 Z M 8.59375 -1.421875 C 9.695312 -1.421875 10.628906 -1.710938 11.390625 -2.296875 C 12.160156 -2.878906 12.75 -3.660156 13.15625 -4.640625 C 13.5625 -5.628906 13.765625 -6.722656 13.765625 -7.921875 C 13.765625 -9.140625 13.5625 -10.242188 13.15625 -11.234375 C 12.75 -12.222656 12.160156 -13.007812 11.390625 -13.59375 C 10.617188 -14.175781 9.6875 -14.46875 8.59375 -14.46875 C 7.519531 -14.46875 6.597656 -14.171875 5.828125 -13.578125 C 5.054688 -12.992188 4.46875 -12.207031 4.0625 -11.21875 C 3.65625 -10.238281 3.453125 -9.140625 3.453125 -7.921875 C 3.453125 -6.710938 3.65625 -5.617188 4.0625 -4.640625 C 4.46875 -3.660156 5.054688 -2.878906 5.828125 -2.296875 C 6.597656 -1.710938 7.519531 -1.421875 8.59375 -1.421875 Z M 8.59375 -1.421875 "/></g></g></g><g fill="#ffffff" fill-opacity="1"><g transform="translate(80.739142, 29.303718)"><g><path d="M 4.28125 -9.90625 L 4.28125 0 L 2.34375 0 L 2.34375 -15.984375 L 4.21875 -15.984375 L 4.234375 -12.25 L 3.875 -12.25 C 4.320312 -13.632812 5.019531 -14.640625 5.96875 -15.265625 C 6.914062 -15.898438 8 -16.21875 9.21875 -16.21875 C 10.3125 -16.21875 11.273438 -15.988281 12.109375 -15.53125 C 12.941406 -15.070312 13.59375 -14.40625 14.0625 -13.53125 C 14.539062 -12.65625 14.78125 -11.578125 14.78125 -10.296875 L 14.78125 0 L 12.84375 0 L 12.84375 -10.15625 C 12.84375 -11.488281 12.46875 -12.535156 11.71875 -13.296875 C 10.976562 -14.054688 9.988281 -14.4375 8.75 -14.4375 C 7.90625 -14.4375 7.144531 -14.253906 6.46875 -13.890625 C 5.789062 -13.535156 5.253906 -13.019531 4.859375 -12.34375 C 4.472656 -11.675781 4.28125 -10.863281 4.28125 -9.90625 Z M 4.28125 -9.90625 "/></g></g></g><g fill="#ffffff" fill-opacity="1"><g transform="translate(97.862837, 29.303718)"><g><path d="M 7.484375 0.328125 C 6.410156 0.328125 5.457031 0.160156 4.625 -0.171875 C 3.800781 -0.503906 3.125 -0.992188 2.59375 -1.640625 C 2.070312 -2.285156 1.726562 -3.078125 1.5625 -4.015625 L 3.4375 -4.359375 C 3.632812 -3.367188 4.078125 -2.625 4.765625 -2.125 C 5.460938 -1.632812 6.359375 -1.390625 7.453125 -1.390625 C 8.671875 -1.390625 9.644531 -1.660156 10.375 -2.203125 C 11.101562 -2.753906 11.46875 -3.4375 11.46875 -4.25 C 11.46875 -4.90625 11.242188 -5.441406 10.796875 -5.859375 C 10.359375 -6.285156 9.703125 -6.601562 8.828125 -6.8125 L 6.234375 -7.421875 C 4.835938 -7.765625 3.789062 -8.289062 3.09375 -9 C 2.40625 -9.707031 2.0625 -10.609375 2.0625 -11.703125 C 2.0625 -12.585938 2.300781 -13.367188 2.78125 -14.046875 C 3.257812 -14.734375 3.921875 -15.265625 4.765625 -15.640625 C 5.609375 -16.023438 6.578125 -16.21875 7.671875 -16.21875 C 8.691406 -16.21875 9.578125 -16.050781 10.328125 -15.71875 C 11.085938 -15.394531 11.707031 -14.929688 12.1875 -14.328125 C 12.664062 -13.722656 13 -13.003906 13.1875 -12.171875 L 11.390625 -11.8125 C 11.179688 -12.601562 10.78125 -13.253906 10.1875 -13.765625 C 9.59375 -14.273438 8.753906 -14.53125 7.671875 -14.53125 C 6.597656 -14.53125 5.71875 -14.269531 5.03125 -13.75 C 4.351562 -13.238281 4.015625 -12.578125 4.015625 -11.765625 C 4.015625 -11.097656 4.25 -10.550781 4.71875 -10.125 C 5.1875 -9.695312 5.898438 -9.367188 6.859375 -9.140625 L 9.375 -8.546875 C 10.738281 -8.210938 11.757812 -7.695312 12.4375 -7 C 13.125 -6.3125 13.46875 -5.429688 13.46875 -4.359375 C 13.46875 -3.429688 13.210938 -2.613281 12.703125 -1.90625 C 12.203125 -1.207031 11.5 -0.660156 10.59375 -0.265625 C 9.695312 0.128906 8.660156 0.328125 7.484375 0.328125 Z M 7.484375 0.328125 "/></g></g></g><g fill="#ffffff" fill-opacity="1"><g transform="translate(112.829785, 29.303718)"><g><path d="M 7.90625 0.234375 C 6.820312 0.234375 5.859375 0.00390625 5.015625 -0.453125 C 4.179688 -0.910156 3.523438 -1.582031 3.046875 -2.46875 C 2.578125 -3.351562 2.34375 -4.425781 2.34375 -5.6875 L 2.34375 -15.984375 L 4.28125 -15.984375 L 4.28125 -5.828125 C 4.28125 -4.503906 4.648438 -3.457031 5.390625 -2.6875 C 6.140625 -1.925781 7.140625 -1.546875 8.390625 -1.546875 C 9.222656 -1.546875 9.976562 -1.722656 10.65625 -2.078125 C 11.332031 -2.441406 11.863281 -2.960938 12.25 -3.640625 C 12.644531 -4.316406 12.84375 -5.128906 12.84375 -6.078125 L 12.84375 -15.984375 L 14.78125 -15.984375 L 14.78125 0 L 12.90625 0 L 12.90625 -3.734375 L 13.25 -3.734375 C 12.789062 -2.335938 12.085938 -1.328125 11.140625 -0.703125 C 10.191406 -0.078125 9.113281 0.234375 7.90625 0.234375 Z M 7.90625 0.234375 "/></g></g></g><g fill="#ffffff" fill-opacity="1"><g transform="translate(129.95348, 29.303718)"><g><path d="M 4.28125 -21.578125 L 4.28125 0 L 2.34375 0 L 2.34375 -21.578125 Z M 4.28125 -21.578125 "/></g></g></g><g fill="#ffffff" fill-opacity="1"><g transform="translate(137.060706, 29.303718)"><g><path d="M 7.921875 -15.984375 L 7.921875 -14.296875 L 0.21875 -14.296875 L 0.21875 -15.984375 Z M 2.671875 -19.90625 L 4.625 -19.90625 L 4.625 -3.734375 C 4.625 -2.972656 4.789062 -2.410156 5.125 -2.046875 C 5.46875 -1.691406 6 -1.546875 6.71875 -1.609375 C 6.875 -1.617188 7.054688 -1.632812 7.265625 -1.65625 C 7.472656 -1.675781 7.660156 -1.703125 7.828125 -1.734375 L 8.15625 -0.0625 C 7.9375 0 7.695312 0.0390625 7.4375 0.0625 C 7.175781 0.09375 6.921875 0.113281 6.671875 0.125 C 5.410156 0.195312 4.425781 -0.0976562 3.71875 -0.765625 C 3.019531 -1.429688 2.671875 -2.375 2.671875 -3.59375 Z M 2.671875 -19.90625 "/></g></g></g><g fill="#ffffff" fill-opacity="1"><g transform="translate(145.557369, 29.303718)"><g><path d="M 8.59375 0.328125 C 7.207031 0.328125 5.976562 -0.0195312 4.90625 -0.71875 C 3.832031 -1.414062 2.992188 -2.382812 2.390625 -3.625 C 1.785156 -4.875 1.484375 -6.304688 1.484375 -7.921875 C 1.484375 -9.554688 1.785156 -11 2.390625 -12.25 C 2.992188 -13.5 3.832031 -14.472656 4.90625 -15.171875 C 5.976562 -15.867188 7.207031 -16.21875 8.59375 -16.21875 C 10.007812 -16.21875 11.25 -15.867188 12.3125 -15.171875 C 13.382812 -14.472656 14.21875 -13.5 14.8125 -12.25 C 15.414062 -11 15.71875 -9.554688 15.71875 -7.921875 C 15.71875 -6.304688 15.414062 -4.875 14.8125 -3.625 C 14.21875 -2.382812 13.382812 -1.414062 12.3125 -0.71875 C 11.25 -0.0195312 10.007812 0.328125 8.59375 0.328125 Z M 8.59375 -1.421875 C 9.695312 -1.421875 10.628906 -1.710938 11.390625 -2.296875 C 12.160156 -2.878906 12.75 -3.660156 13.15625 -4.640625 C 13.5625 -5.628906 13.765625 -6.722656 13.765625 -7.921875 C 13.765625 -9.140625 13.5625 -10.242188 13.15625 -11.234375 C 12.75 -12.222656 12.160156 -13.007812 11.390625 -13.59375 C 10.617188 -14.175781 9.6875 -14.46875 8.59375 -14.46875 C 7.519531 -14.46875 6.597656 -14.171875 5.828125 -13.578125 C 5.054688 -12.992188 4.46875 -12.207031 4.0625 -11.21875 C 3.65625 -10.238281 3.453125 -9.140625 3.453125 -7.921875 C 3.453125 -6.710938 3.65625 -5.617188 4.0625 -4.640625 C 4.46875 -3.660156 5.054688 -2.878906 5.828125 -2.296875 C 6.597656 -1.710938 7.519531 -1.421875 8.59375 -1.421875 Z M 8.59375 -1.421875 "/></g></g></g><g fill="#ffffff" fill-opacity="1"><g transform="translate(162.767912, 29.303718)"><g><path d="M 2.34375 0 L 2.34375 -15.984375 L 4.21875 -15.984375 L 4.21875 -13.46875 L 4.34375 -13.46875 C 4.664062 -14.289062 5.21875 -14.953125 6 -15.453125 C 6.78125 -15.953125 7.675781 -16.203125 8.6875 -16.203125 C 8.84375 -16.203125 9.007812 -16.195312 9.1875 -16.1875 C 9.363281 -16.175781 9.507812 -16.171875 9.625 -16.171875 L 9.625 -14.21875 C 9.5625 -14.238281 9.421875 -14.257812 9.203125 -14.28125 C 8.984375 -14.3125 8.742188 -14.328125 8.484375 -14.328125 C 7.679688 -14.328125 6.960938 -14.148438 6.328125 -13.796875 C 5.691406 -13.453125 5.191406 -12.96875 4.828125 -12.34375 C 4.460938 -11.726562 4.28125 -11.007812 4.28125 -10.1875 L 4.28125 0 Z M 2.34375 0 "/></g></g></g><g fill="#ffffff" fill-opacity="1"><g transform="translate(172.972626, 29.303718)"><g><path d="M 6.640625 0.328125 C 5.671875 0.328125 4.78125 0.144531 3.96875 -0.21875 C 3.164062 -0.582031 2.523438 -1.125 2.046875 -1.84375 C 1.566406 -2.5625 1.328125 -3.4375 1.328125 -4.46875 C 1.328125 -5.269531 1.476562 -5.941406 1.78125 -6.484375 C 2.09375 -7.023438 2.523438 -7.46875 3.078125 -7.8125 C 3.628906 -8.15625 4.285156 -8.425781 5.046875 -8.625 C 5.804688 -8.832031 6.644531 -8.992188 7.5625 -9.109375 C 8.46875 -9.222656 9.226562 -9.320312 9.84375 -9.40625 C 10.46875 -9.488281 10.941406 -9.625 11.265625 -9.8125 C 11.585938 -10 11.75 -10.289062 11.75 -10.6875 L 11.75 -11.03125 C 11.75 -11.75 11.597656 -12.363281 11.296875 -12.875 C 10.992188 -13.382812 10.5625 -13.78125 10 -14.0625 C 9.4375 -14.34375 8.75 -14.484375 7.9375 -14.484375 C 7.164062 -14.484375 6.488281 -14.359375 5.90625 -14.109375 C 5.320312 -13.859375 4.835938 -13.535156 4.453125 -13.140625 C 4.078125 -12.742188 3.8125 -12.296875 3.65625 -11.796875 L 1.765625 -12.296875 C 2.054688 -13.191406 2.507812 -13.925781 3.125 -14.5 C 3.738281 -15.070312 4.460938 -15.5 5.296875 -15.78125 C 6.128906 -16.070312 7 -16.21875 7.90625 -16.21875 C 8.582031 -16.21875 9.257812 -16.125 9.9375 -15.9375 C 10.625 -15.757812 11.25 -15.460938 11.8125 -15.046875 C 12.375 -14.640625 12.828125 -14.09375 13.171875 -13.40625 C 13.515625 -12.726562 13.6875 -11.894531 13.6875 -10.90625 L 13.6875 0 L 11.765625 0 L 11.765625 -2.546875 L 11.640625 -2.546875 C 11.421875 -2.054688 11.085938 -1.59375 10.640625 -1.15625 C 10.203125 -0.71875 9.648438 -0.359375 8.984375 -0.078125 C 8.328125 0.191406 7.546875 0.328125 6.640625 0.328125 Z M 6.9375 -1.40625 C 7.925781 -1.40625 8.78125 -1.613281 9.5 -2.03125 C 10.21875 -2.457031 10.769531 -3.03125 11.15625 -3.75 C 11.550781 -4.476562 11.75 -5.28125 11.75 -6.15625 L 11.75 -8.421875 C 11.613281 -8.296875 11.382812 -8.179688 11.0625 -8.078125 C 10.75 -7.972656 10.390625 -7.878906 9.984375 -7.796875 C 9.578125 -7.710938 9.160156 -7.640625 8.734375 -7.578125 C 8.304688 -7.523438 7.910156 -7.472656 7.546875 -7.421875 C 6.660156 -7.316406 5.894531 -7.144531 5.25 -6.90625 C 4.613281 -6.675781 4.125 -6.359375 3.78125 -5.953125 C 3.445312 -5.546875 3.28125 -5.023438 3.28125 -4.390625 C 3.28125 -3.765625 3.441406 -3.226562 3.765625 -2.78125 C 4.085938 -2.332031 4.519531 -1.988281 5.0625 -1.75 C 5.613281 -1.519531 6.238281 -1.40625 6.9375 -1.40625 Z M 6.9375 -1.40625 "/></g></g></g><g fill="#ffffff" fill-opacity="1"><g transform="translate(188.996235, 29.303718)"><g/></g></g><g fill="#ffffff" fill-opacity="1"><g transform="translate(197.058702, 29.303718)"><g><path d="M 0.703125 0 L 8.625 -21.578125 L 11.015625 -21.578125 L 19 0 L 16.859375 0 L 11.734375 -14.140625 C 11.441406 -14.929688 11.125 -15.84375 10.78125 -16.875 C 10.4375 -17.914062 10.039062 -19.171875 9.59375 -20.640625 L 10.046875 -20.640625 C 9.609375 -19.160156 9.210938 -17.894531 8.859375 -16.84375 C 8.515625 -15.800781 8.207031 -14.898438 7.9375 -14.140625 L 2.859375 0 Z M 4.421875 -6.421875 L 4.421875 -8.21875 L 15.296875 -8.21875 L 15.296875 -6.421875 Z M 4.421875 -6.421875 "/></g></g></g><g fill="#ffffff" fill-opacity="1"><g transform="translate(216.527266, 29.303718)"><g><path d="M 8.59375 0.296875 C 7.207031 0.296875 5.976562 -0.0507812 4.90625 -0.75 C 3.832031 -1.445312 2.992188 -2.414062 2.390625 -3.65625 C 1.785156 -4.894531 1.484375 -6.320312 1.484375 -7.9375 C 1.484375 -9.5625 1.785156 -11 2.390625 -12.25 C 2.992188 -13.5 3.832031 -14.472656 4.90625 -15.171875 C 5.976562 -15.867188 7.207031 -16.21875 8.59375 -16.21875 C 9.425781 -16.21875 10.1875 -16.097656 10.875 -15.859375 C 11.570312 -15.617188 12.1875 -15.289062 12.71875 -14.875 C 13.257812 -14.457031 13.707031 -13.988281 14.0625 -13.46875 C 14.414062 -12.945312 14.671875 -12.40625 14.828125 -11.84375 L 12.953125 -11.390625 C 12.859375 -11.742188 12.691406 -12.097656 12.453125 -12.453125 C 12.222656 -12.816406 11.921875 -13.148438 11.546875 -13.453125 C 11.179688 -13.753906 10.753906 -14 10.265625 -14.1875 C 9.773438 -14.375 9.21875 -14.46875 8.59375 -14.46875 C 7.519531 -14.46875 6.597656 -14.175781 5.828125 -13.59375 C 5.054688 -13.007812 4.46875 -12.226562 4.0625 -11.25 C 3.65625 -10.269531 3.453125 -9.164062 3.453125 -7.9375 C 3.453125 -6.726562 3.65625 -5.632812 4.0625 -4.65625 C 4.46875 -3.675781 5.054688 -2.894531 5.828125 -2.3125 C 6.597656 -1.738281 7.519531 -1.453125 8.59375 -1.453125 C 9.226562 -1.453125 9.796875 -1.546875 10.296875 -1.734375 C 10.796875 -1.921875 11.226562 -2.164062 11.59375 -2.46875 C 11.96875 -2.78125 12.269531 -3.117188 12.5 -3.484375 C 12.738281 -3.859375 12.90625 -4.226562 13 -4.59375 L 14.875 -4.140625 C 14.726562 -3.578125 14.472656 -3.03125 14.109375 -2.5 C 13.742188 -1.96875 13.289062 -1.488281 12.75 -1.0625 C 12.21875 -0.644531 11.597656 -0.3125 10.890625 -0.0625 C 10.191406 0.175781 9.425781 0.296875 8.59375 0.296875 Z M 8.59375 0.296875 "/></g></g></g><g fill="#ffffff" fill-opacity="1"><g transform="translate(232.811422, 29.303718)"><g><path d="M 7.484375 0.328125 C 6.410156 0.328125 5.457031 0.160156 4.625 -0.171875 C 3.800781 -0.503906 3.125 -0.992188 2.59375 -1.640625 C 2.070312 -2.285156 1.726562 -3.078125 1.5625 -4.015625 L 3.4375 -4.359375 C 3.632812 -3.367188 4.078125 -2.625 4.765625 -2.125 C 5.460938 -1.632812 6.359375 -1.390625 7.453125 -1.390625 C 8.671875 -1.390625 9.644531 -1.660156 10.375 -2.203125 C 11.101562 -2.753906 11.46875 -3.4375 11.46875 -4.25 C 11.46875 -4.90625 11.242188 -5.441406 10.796875 -5.859375 C 10.359375 -6.285156 9.703125 -6.601562 8.828125 -6.8125 L 6.234375 -7.421875 C 4.835938 -7.765625 3.789062 -8.289062 3.09375 -9 C 2.40625 -9.707031 2.0625 -10.609375 2.0625 -11.703125 C 2.0625 -12.585938 2.300781 -13.367188 2.78125 -14.046875 C 3.257812 -14.734375 3.921875 -15.265625 4.765625 -15.640625 C 5.609375 -16.023438 6.578125 -16.21875 7.671875 -16.21875 C 8.691406 -16.21875 9.578125 -16.050781 10.328125 -15.71875 C 11.085938 -15.394531 11.707031 -14.929688 12.1875 -14.328125 C 12.664062 -13.722656 13 -13.003906 13.1875 -12.171875 L 11.390625 -11.8125 C 11.179688 -12.601562 10.78125 -13.253906 10.1875 -13.765625 C 9.59375 -14.273438 8.753906 -14.53125 7.671875 -14.53125 C 6.597656 -14.53125 5.71875 -14.269531 5.03125 -13.75 C 4.351562 -13.238281 4.015625 -12.578125 4.015625 -11.765625 C 4.015625 -11.097656 4.25 -10.550781 4.71875 -10.125 C 5.1875 -9.695312 5.898438 -9.367188 6.859375 -9.140625 L 9.375 -8.546875 C 10.738281 -8.210938 11.757812 -7.695312 12.4375 -7 C 13.125 -6.3125 13.46875 -5.429688 13.46875 -4.359375 C 13.46875 -3.429688 13.210938 -2.613281 12.703125 -1.90625 C 12.203125 -1.207031 11.5 -0.660156 10.59375 -0.265625 C 9.695312 0.128906 8.660156 0.328125 7.484375 0.328125 Z M 7.484375 0.328125 "/></g></g></g><g fill="#ffffff" fill-opacity="1"><g transform="translate(247.778371, 29.303718)"><g><path d="M 6.640625 0.328125 C 5.671875 0.328125 4.78125 0.144531 3.96875 -0.21875 C 3.164062 -0.582031 2.523438 -1.125 2.046875 -1.84375 C 1.566406 -2.5625 1.328125 -3.4375 1.328125 -4.46875 C 1.328125 -5.269531 1.476562 -5.941406 1.78125 -6.484375 C 2.09375 -7.023438 2.523438 -7.46875 3.078125 -7.8125 C 3.628906 -8.15625 4.285156 -8.425781 5.046875 -8.625 C 5.804688 -8.832031 6.644531 -8.992188 7.5625 -9.109375 C 8.46875 -9.222656 9.226562 -9.320312 9.84375 -9.40625 C 10.46875 -9.488281 10.941406 -9.625 11.265625 -9.8125 C 11.585938 -10 11.75 -10.289062 11.75 -10.6875 L 11.75 -11.03125 C 11.75 -11.75 11.597656 -12.363281 11.296875 -12.875 C 10.992188 -13.382812 10.5625 -13.78125 10 -14.0625 C 9.4375 -14.34375 8.75 -14.484375 7.9375 -14.484375 C 7.164062 -14.484375 6.488281 -14.359375 5.90625 -14.109375 C 5.320312 -13.859375 4.835938 -13.535156 4.453125 -13.140625 C 4.078125 -12.742188 3.8125 -12.296875 3.65625 -11.796875 L 1.765625 -12.296875 C 2.054688 -13.191406 2.507812 -13.925781 3.125 -14.5 C 3.738281 -15.070312 4.460938 -15.5 5.296875 -15.78125 C 6.128906 -16.070312 7 -16.21875 7.90625 -16.21875 C 8.582031 -16.21875 9.257812 -16.125 9.9375 -15.9375 C 10.625 -15.757812 11.25 -15.460938 11.8125 -15.046875 C 12.375 -14.640625 12.828125 -14.09375 13.171875 -13.40625 C 13.515625 -12.726562 13.6875 -11.894531 13.6875 -10.90625 L 13.6875 0 L 11.765625 0 L 11.765625 -2.546875 L 11.640625 -2.546875 C 11.421875 -2.054688 11.085938 -1.59375 10.640625 -1.15625 C 10.203125 -0.71875 9.648438 -0.359375 8.984375 -0.078125 C 8.328125 0.191406 7.546875 0.328125 6.640625 0.328125 Z M 6.9375 -1.40625 C 7.925781 -1.40625 8.78125 -1.613281 9.5 -2.03125 C 10.21875 -2.457031 10.769531 -3.03125 11.15625 -3.75 C 11.550781 -4.476562 11.75 -5.28125 11.75 -6.15625 L 11.75 -8.421875 C 11.613281 -8.296875 11.382812 -8.179688 11.0625 -8.078125 C 10.75 -7.972656 10.390625 -7.878906 9.984375 -7.796875 C 9.578125 -7.710938 9.160156 -7.640625 8.734375 -7.578125 C 8.304688 -7.523438 7.910156 -7.472656 7.546875 -7.421875 C 6.660156 -7.316406 5.894531 -7.144531 5.25 -6.90625 C 4.613281 -6.675781 4.125 -6.359375 3.78125 -5.953125 C 3.445312 -5.546875 3.28125 -5.023438 3.28125 -4.390625 C 3.28125 -3.765625 3.441406 -3.226562 3.765625 -2.78125 C 4.085938 -2.332031 4.519531 -1.988281 5.0625 -1.75 C 5.613281 -1.519531 6.238281 -1.40625 6.9375 -1.40625 Z M 6.9375 -1.40625 "/></g></g></g></g></g><g transform="matrix(1, 0, 0, 1, 95, 13)"><g clip-path="url(#f2a198a1e5)"><g fill="#ffffff" fill-opacity="1"><g transform="translate(0.939662, 35.248719)"><g><path d="M 19.484375 -33.34375 C 20.304688 -33.3125 20.941406 -33.203125 21.390625 -33.015625 C 21.859375 -32.847656 22.3125 -32.539062 22.75 -32.09375 C 23.269531 -31.539062 23.585938 -30.894531 23.703125 -30.15625 L 23.703125 -29.578125 C 23.734375 -28.992188 23.625 -28.375 23.375 -27.71875 C 22.875 -26.445312 21.878906 -25.132812 20.390625 -23.78125 C 18.929688 -22.457031 17.265625 -21.351562 15.390625 -20.46875 C 14.066406 -19.863281 12.726562 -19.382812 11.375 -19.03125 C 10 -18.664062 8.648438 -18.441406 7.328125 -18.359375 C 6.960938 -18.335938 6.421875 -18.3125 5.703125 -18.28125 C 5.648438 -18.175781 5.566406 -18 5.453125 -17.75 C 5.210938 -17.300781 4.925781 -16.597656 4.59375 -15.640625 C 4.257812 -14.703125 4 -13.859375 3.8125 -13.109375 C 3.226562 -10.796875 3.085938 -8.828125 3.390625 -7.203125 C 3.691406 -5.597656 4.476562 -4.203125 5.75 -3.015625 C 6.882812 -1.992188 8.265625 -1.304688 9.890625 -0.953125 C 11.515625 -0.585938 13.164062 -0.613281 14.84375 -1.03125 C 15.925781 -1.3125 16.960938 -1.726562 17.953125 -2.28125 C 18.921875 -2.832031 19.898438 -3.5625 20.890625 -4.46875 C 21.328125 -4.851562 21.644531 -5.101562 21.84375 -5.21875 C 22.03125 -5.320312 22.222656 -5.375 22.421875 -5.375 C 22.773438 -5.375 23.066406 -5.265625 23.296875 -5.046875 C 23.515625 -4.796875 23.625 -4.492188 23.625 -4.140625 C 23.625 -3.921875 23.566406 -3.738281 23.453125 -3.59375 C 23.367188 -3.425781 23.148438 -3.179688 22.796875 -2.859375 C 21.554688 -1.691406 20.257812 -0.738281 18.90625 0 C 17.53125 0.738281 16.125 1.25 14.6875 1.53125 C 14.019531 1.644531 13.132812 1.703125 12.03125 1.703125 C 10.90625 1.703125 10.039062 1.628906 9.4375 1.484375 C 7.71875 1.128906 6.210938 0.457031 4.921875 -0.53125 C 3.597656 -1.53125 2.578125 -2.742188 1.859375 -4.171875 C 1.441406 -5.023438 1.164062 -5.769531 1.03125 -6.40625 C 0.894531 -7.070312 0.828125 -7.941406 0.828125 -9.015625 C 0.828125 -10.316406 0.953125 -11.554688 1.203125 -12.734375 C 1.453125 -13.898438 1.878906 -15.296875 2.484375 -16.921875 L 2.859375 -18.03125 C 2.960938 -18.363281 3.015625 -18.546875 3.015625 -18.578125 C 3.015625 -18.628906 2.972656 -18.679688 2.890625 -18.734375 C 2.804688 -18.816406 2.722656 -18.875 2.640625 -18.90625 C 1.867188 -19.238281 1.28125 -19.664062 0.875 -20.1875 C 0.488281 -20.738281 0.296875 -21.34375 0.296875 -22 C 0.296875 -23.21875 0.882812 -24.253906 2.0625 -25.109375 C 3.25 -25.960938 4.863281 -26.539062 6.90625 -26.84375 C 7.1875 -26.875 7.570312 -26.929688 8.0625 -27.015625 C 8.445312 -27.367188 9.015625 -27.921875 9.765625 -28.671875 C 11.359375 -30.242188 12.898438 -31.398438 14.390625 -32.140625 C 15.878906 -32.910156 17.382812 -33.3125 18.90625 -33.34375 Z M 9.3125 -24.453125 C 8.695312 -23.617188 8.1875 -22.859375 7.78125 -22.171875 C 7.332031 -21.484375 7.140625 -21.082031 7.203125 -20.96875 C 7.222656 -20.832031 7.566406 -20.804688 8.234375 -20.890625 C 8.890625 -20.941406 9.632812 -21.078125 10.46875 -21.296875 C 11.320312 -21.523438 12.050781 -21.75 12.65625 -21.96875 C 13.257812 -22.1875 13.945312 -22.488281 14.71875 -22.875 C 15.6875 -23.34375 16.53125 -23.835938 17.25 -24.359375 C 17.96875 -24.890625 18.65625 -25.5 19.3125 -26.1875 C 20.664062 -27.59375 21.316406 -28.738281 21.265625 -29.625 C 21.234375 -30.5 20.515625 -30.9375 19.109375 -30.9375 C 17.648438 -30.9375 16.007812 -30.34375 14.1875 -29.15625 C 12.363281 -27.945312 10.738281 -26.378906 9.3125 -24.453125 Z M 4.671875 -23.78125 C 3.898438 -23.457031 3.347656 -23.070312 3.015625 -22.625 C 2.679688 -22.1875 2.671875 -21.828125 2.984375 -21.546875 C 3.117188 -21.410156 3.3125 -21.289062 3.5625 -21.1875 C 3.78125 -21.070312 3.957031 -21.015625 4.09375 -21.015625 C 4.144531 -21.015625 4.269531 -21.148438 4.46875 -21.421875 C 4.632812 -21.703125 4.828125 -22.035156 5.046875 -22.421875 C 5.265625 -22.835938 5.457031 -23.195312 5.625 -23.5 C 5.789062 -23.800781 5.875 -23.96875 5.875 -24 C 5.875 -24.050781 5.859375 -24.078125 5.828125 -24.078125 C 5.828125 -24.097656 5.800781 -24.109375 5.75 -24.109375 C 5.664062 -24.109375 5.539062 -24.082031 5.375 -24.03125 C 5.207031 -23.976562 4.972656 -23.894531 4.671875 -23.78125 Z M 4.671875 -23.78125 "/></g></g></g><g fill="#ffffff" fill-opacity="1"><g transform="translate(25.509589, 35.248719)"><g><path d="M 10.21875 -11.046875 C 10.332031 -10.828125 10.441406 -10.675781 10.546875 -10.59375 C 10.660156 -10.507812 10.84375 -10.441406 11.09375 -10.390625 C 11.394531 -10.359375 11.65625 -10.21875 11.875 -9.96875 C 12.09375 -9.75 12.203125 -9.5 12.203125 -9.21875 C 12.203125 -9.132812 12.175781 -8.984375 12.125 -8.765625 C 12.039062 -8.515625 11.941406 -8.269531 11.828125 -8.03125 C 11.554688 -7.445312 11.320312 -6.820312 11.125 -6.15625 C 10.90625 -5.5 10.796875 -5.03125 10.796875 -4.75 C 10.796875 -4.59375 10.8125 -4.484375 10.84375 -4.421875 C 10.894531 -4.367188 10.976562 -4.34375 11.09375 -4.34375 C 11.195312 -4.34375 11.539062 -4.578125 12.125 -5.046875 C 12.726562 -5.484375 13.390625 -6.035156 14.109375 -6.703125 C 14.515625 -7.054688 14.914062 -7.414062 15.3125 -7.78125 L 16.421875 -8.890625 C 16.835938 -9.335938 17.265625 -9.335938 17.703125 -8.890625 C 17.984375 -8.617188 18.125 -8.332031 18.125 -8.03125 C 18.125 -7.863281 18.066406 -7.695312 17.953125 -7.53125 C 17.453125 -6.863281 16.691406 -6.050781 15.671875 -5.09375 C 14.628906 -4.09375 13.914062 -3.414062 13.53125 -3.0625 C 12.894531 -2.507812 12.273438 -2.125 11.671875 -1.90625 C 11.304688 -1.769531 10.957031 -1.703125 10.625 -1.703125 C 10.4375 -1.703125 10.242188 -1.726562 10.046875 -1.78125 C 9.640625 -1.914062 9.253906 -2.21875 8.890625 -2.6875 C 8.554688 -3.1875 8.390625 -3.65625 8.390625 -4.09375 C 8.390625 -4.207031 8.378906 -4.304688 8.359375 -4.390625 C 8.328125 -4.472656 8.296875 -4.523438 8.265625 -4.546875 C 8.210938 -4.578125 8.09375 -4.535156 7.90625 -4.421875 C 7.707031 -4.335938 7.484375 -4.210938 7.234375 -4.046875 C 5.085938 -2.617188 3.203125 -2.03125 1.578125 -2.28125 C -0.0234375 -2.550781 -0.828125 -3.582031 -0.828125 -5.375 C -0.828125 -6.039062 -0.71875 -6.703125 -0.5 -7.359375 C -0.28125 -8.023438 0.0195312 -8.660156 0.40625 -9.265625 C 1.125 -10.398438 2.050781 -11.351562 3.1875 -12.125 C 4.3125 -12.894531 5.457031 -13.28125 6.625 -13.28125 C 7.363281 -13.28125 8.066406 -13.085938 8.734375 -12.703125 C 9.367188 -12.285156 9.863281 -11.734375 10.21875 -11.046875 Z M 6.375 -10.84375 C 5.875 -10.78125 5.375 -10.597656 4.875 -10.296875 C 4.382812 -9.992188 3.90625 -9.59375 3.4375 -9.09375 C 2.75 -8.351562 2.222656 -7.539062 1.859375 -6.65625 C 1.503906 -5.75 1.460938 -5.144531 1.734375 -4.84375 C 1.867188 -4.644531 2.1875 -4.585938 2.6875 -4.671875 C 3.1875 -4.753906 3.738281 -4.945312 4.34375 -5.25 C 5.007812 -5.550781 5.644531 -5.910156 6.25 -6.328125 C 6.851562 -6.742188 7.429688 -7.210938 7.984375 -7.734375 C 8.171875 -7.898438 8.460938 -8.160156 8.859375 -8.515625 C 8.742188 -8.710938 8.5625 -9.003906 8.3125 -9.390625 C 7.976562 -9.941406 7.703125 -10.328125 7.484375 -10.546875 C 7.265625 -10.742188 6.988281 -10.84375 6.65625 -10.84375 Z M 6.375 -10.84375 "/></g></g></g><g fill="#ffffff" fill-opacity="1"><g transform="translate(41.848177, 35.248719)"><g><path d="M 2.734375 2.890625 C 2.265625 2.703125 1.765625 2.304688 1.234375 1.703125 C 0.710938 1.066406 0.367188 0.472656 0.203125 -0.078125 C -0.203125 -1.429688 -0.335938 -3.222656 -0.203125 -5.453125 C -0.0664062 -7.660156 0.359375 -10.546875 1.078125 -14.109375 C 1.210938 -14.742188 1.335938 -15.320312 1.453125 -15.84375 C 1.535156 -16.34375 1.578125 -16.632812 1.578125 -16.71875 C 1.597656 -16.800781 1.523438 -16.867188 1.359375 -16.921875 C 1.222656 -16.972656 0.9375 -17.023438 0.5 -17.078125 C -0.164062 -17.160156 -0.757812 -17.316406 -1.28125 -17.546875 C -1.832031 -17.785156 -2.328125 -18.085938 -2.765625 -18.453125 C -3.097656 -18.753906 -3.332031 -19.03125 -3.46875 -19.28125 C -3.550781 -19.445312 -3.59375 -19.609375 -3.59375 -19.765625 C -3.59375 -19.878906 -3.582031 -19.992188 -3.5625 -20.109375 C -3.414062 -20.546875 -3.109375 -20.804688 -2.640625 -20.890625 C -2.203125 -20.972656 -1.773438 -20.832031 -1.359375 -20.46875 C -1.003906 -20.164062 -0.632812 -19.945312 -0.25 -19.8125 C 0.113281 -19.644531 0.554688 -19.550781 1.078125 -19.53125 L 1.8125 -19.53125 C 2.039062 -19.550781 2.179688 -19.578125 2.234375 -19.609375 C 2.265625 -19.660156 2.332031 -19.851562 2.4375 -20.1875 C 2.550781 -20.539062 2.675781 -20.953125 2.8125 -21.421875 C 3.332031 -23.410156 3.734375 -24.804688 4.015625 -25.609375 C 4.285156 -26.410156 4.53125 -26.90625 4.75 -27.09375 C 5.03125 -27.289062 5.28125 -27.398438 5.5 -27.421875 C 5.53125 -27.421875 5.554688 -27.410156 5.578125 -27.390625 C 5.828125 -27.390625 6.078125 -27.234375 6.328125 -26.921875 C 6.578125 -26.679688 6.675781 -26.410156 6.625 -26.109375 C 6.59375 -25.796875 6.316406 -24.742188 5.796875 -22.953125 C 5.566406 -22.179688 5.398438 -21.535156 5.296875 -21.015625 C 5.160156 -20.515625 5.101562 -20.238281 5.125 -20.1875 C 5.1875 -20.15625 5.335938 -20.140625 5.578125 -20.140625 C 5.859375 -20.171875 6.164062 -20.210938 6.5 -20.265625 C 7.625 -20.429688 8.765625 -20.515625 9.921875 -20.515625 C 11.085938 -20.484375 12.039062 -20.375 12.78125 -20.1875 C 13.28125 -20.050781 13.5 -19.582031 13.4375 -18.78125 C 13.382812 -17.976562 13.015625 -17.644531 12.328125 -17.78125 C 11.503906 -17.945312 10.550781 -18.03125 9.46875 -18.03125 C 8.394531 -18.03125 7.320312 -17.9375 6.25 -17.75 C 5.75 -17.664062 5.320312 -17.582031 4.96875 -17.5 C 4.601562 -17.414062 4.410156 -17.359375 4.390625 -17.328125 C 4.304688 -17.273438 4.113281 -16.5625 3.8125 -15.1875 C 3.5 -13.832031 3.207031 -12.367188 2.9375 -10.796875 C 2.738281 -9.890625 2.597656 -9.035156 2.515625 -8.234375 C 2.441406 -7.429688 2.363281 -6.492188 2.28125 -5.421875 C 2.195312 -4.097656 2.164062 -3.226562 2.1875 -2.8125 C 2.1875 -2.394531 2.242188 -1.953125 2.359375 -1.484375 C 2.609375 -0.578125 2.96875 0.0507812 3.4375 0.40625 C 3.90625 0.800781 4.507812 0.914062 5.25 0.75 C 6.382812 0.519531 7.75 -0.375 9.34375 -1.9375 C 10.945312 -3.488281 12.46875 -5.40625 13.90625 -7.6875 C 14.144531 -8.070312 14.390625 -8.421875 14.640625 -8.734375 C 14.890625 -9.054688 15.054688 -9.25 15.140625 -9.3125 C 15.523438 -9.53125 15.910156 -9.53125 16.296875 -9.3125 C 16.679688 -9.082031 16.875 -8.765625 16.875 -8.359375 L 16.875 -8.265625 C 16.851562 -7.859375 16.507812 -7.128906 15.84375 -6.078125 C 15.15625 -5.035156 14.351562 -3.960938 13.4375 -2.859375 C 12.96875 -2.242188 12.472656 -1.660156 11.953125 -1.109375 C 11.453125 -0.566406 10.984375 -0.0859375 10.546875 0.328125 C 9.828125 0.960938 9.179688 1.472656 8.609375 1.859375 C 8.023438 2.242188 7.414062 2.5625 6.78125 2.8125 C 6.34375 3.007812 5.984375 3.117188 5.703125 3.140625 C 5.515625 3.203125 5.238281 3.234375 4.875 3.234375 C 4.769531 3.234375 4.660156 3.21875 4.546875 3.1875 C 4.140625 3.1875 3.78125 3.160156 3.46875 3.109375 C 3.195312 3.078125 2.953125 3.003906 2.734375 2.890625 Z M 2.734375 2.890625 "/></g></g></g><g fill="#ffffff" fill-opacity="1"><g transform="translate(56.656315, 35.248719)"><g><path d="M 10.21875 -11.046875 C 10.332031 -10.828125 10.441406 -10.675781 10.546875 -10.59375 C 10.660156 -10.507812 10.84375 -10.441406 11.09375 -10.390625 C 11.394531 -10.359375 11.65625 -10.21875 11.875 -9.96875 C 12.09375 -9.75 12.203125 -9.5 12.203125 -9.21875 C 12.203125 -9.132812 12.175781 -8.984375 12.125 -8.765625 C 12.039062 -8.515625 11.941406 -8.269531 11.828125 -8.03125 C 11.554688 -7.445312 11.320312 -6.820312 11.125 -6.15625 C 10.90625 -5.5 10.796875 -5.03125 10.796875 -4.75 C 10.796875 -4.59375 10.8125 -4.484375 10.84375 -4.421875 C 10.894531 -4.367188 10.976562 -4.34375 11.09375 -4.34375 C 11.195312 -4.34375 11.539062 -4.578125 12.125 -5.046875 C 12.726562 -5.484375 13.390625 -6.035156 14.109375 -6.703125 C 14.515625 -7.054688 14.914062 -7.414062 15.3125 -7.78125 L 16.421875 -8.890625 C 16.835938 -9.335938 17.265625 -9.335938 17.703125 -8.890625 C 17.984375 -8.617188 18.125 -8.332031 18.125 -8.03125 C 18.125 -7.863281 18.066406 -7.695312 17.953125 -7.53125 C 17.453125 -6.863281 16.691406 -6.050781 15.671875 -5.09375 C 14.628906 -4.09375 13.914062 -3.414062 13.53125 -3.0625 C 12.894531 -2.507812 12.273438 -2.125 11.671875 -1.90625 C 11.304688 -1.769531 10.957031 -1.703125 10.625 -1.703125 C 10.4375 -1.703125 10.242188 -1.726562 10.046875 -1.78125 C 9.640625 -1.914062 9.253906 -2.21875 8.890625 -2.6875 C 8.554688 -3.1875 8.390625 -3.65625 8.390625 -4.09375 C 8.390625 -4.207031 8.378906 -4.304688 8.359375 -4.390625 C 8.328125 -4.472656 8.296875 -4.523438 8.265625 -4.546875 C 8.210938 -4.578125 8.09375 -4.535156 7.90625 -4.421875 C 7.707031 -4.335938 7.484375 -4.210938 7.234375 -4.046875 C 5.085938 -2.617188 3.203125 -2.03125 1.578125 -2.28125 C -0.0234375 -2.550781 -0.828125 -3.582031 -0.828125 -5.375 C -0.828125 -6.039062 -0.71875 -6.703125 -0.5 -7.359375 C -0.28125 -8.023438 0.0195312 -8.660156 0.40625 -9.265625 C 1.125 -10.398438 2.050781 -11.351562 3.1875 -12.125 C 4.3125 -12.894531 5.457031 -13.28125 6.625 -13.28125 C 7.363281 -13.28125 8.066406 -13.085938 8.734375 -12.703125 C 9.367188 -12.285156 9.863281 -11.734375 10.21875 -11.046875 Z M 6.375 -10.84375 C 5.875 -10.78125 5.375 -10.597656 4.875 -10.296875 C 4.382812 -9.992188 3.90625 -9.59375 3.4375 -9.09375 C 2.75 -8.351562 2.222656 -7.539062 1.859375 -6.65625 C 1.503906 -5.75 1.460938 -5.144531 1.734375 -4.84375 C 1.867188 -4.644531 2.1875 -4.585938 2.6875 -4.671875 C 3.1875 -4.753906 3.738281 -4.945312 4.34375 -5.25 C 5.007812 -5.550781 5.644531 -5.910156 6.25 -6.328125 C 6.851562 -6.742188 7.429688 -7.210938 7.984375 -7.734375 C 8.171875 -7.898438 8.460938 -8.160156 8.859375 -8.515625 C 8.742188 -8.710938 8.5625 -9.003906 8.3125 -9.390625 C 7.976562 -9.941406 7.703125 -10.328125 7.484375 -10.546875 C 7.265625 -10.742188 6.988281 -10.84375 6.65625 -10.84375 Z M 6.203125 -17.5 C 6.234375 -17.601562 6.375 -17.753906 6.625 -17.953125 C 6.863281 -18.117188 7.359375 -18.847656 8.109375 -20.140625 C 8.191406 -20.285156 8.316406 -20.359375 8.484375 -20.359375 C 8.671875 -20.359375 8.90625 -20.285156 9.1875 -20.140625 C 9.738281 -19.816406 10.066406 -19.457031 10.171875 -19.0625 C 10.234375 -18.738281 9.90625 -18.257812 9.1875 -17.625 C 8.46875 -17.019531 7.789062 -16.617188 7.15625 -16.421875 C 6.882812 -16.335938 6.648438 -16.4375 6.453125 -16.71875 C 6.253906 -16.957031 6.171875 -17.21875 6.203125 -17.5 Z M 6.203125 -17.5 "/></g></g></g><g fill="#ffffff" fill-opacity="1"><g transform="translate(72.994903, 35.248719)"><g><path d="M 10.625 -23.453125 C 10.875 -22.878906 11.015625 -22.109375 11.046875 -21.140625 C 11.078125 -20.203125 10.992188 -19.304688 10.796875 -18.453125 C 10.410156 -16.929688 9.679688 -15.382812 8.609375 -13.8125 C 7.523438 -12.238281 6.203125 -10.804688 4.640625 -9.515625 C 3.554688 -8.609375 2.929688 -8.070312 2.765625 -7.90625 C 2.628906 -7.707031 2.585938 -7.457031 2.640625 -7.15625 C 2.722656 -6.632812 2.878906 -6.039062 3.109375 -5.375 C 3.347656 -4.6875 3.59375 -4.175781 3.84375 -3.84375 C 4.207031 -3.320312 4.550781 -2.960938 4.875 -2.765625 C 5.207031 -2.578125 5.675781 -2.484375 6.28125 -2.484375 C 6.726562 -2.484375 7.078125 -2.523438 7.328125 -2.609375 C 7.546875 -2.660156 7.890625 -2.8125 8.359375 -3.0625 C 9.078125 -3.414062 9.863281 -4.019531 10.71875 -4.875 C 11.570312 -5.726562 12.285156 -6.613281 12.859375 -7.53125 C 13.390625 -8.351562 13.773438 -8.890625 14.015625 -9.140625 C 14.265625 -9.390625 14.515625 -9.515625 14.765625 -9.515625 C 15.015625 -9.515625 15.289062 -9.390625 15.59375 -9.140625 C 15.875 -8.867188 16.015625 -8.617188 16.015625 -8.390625 C 16.015625 -8.203125 15.914062 -7.890625 15.71875 -7.453125 C 15.5 -7.035156 15.164062 -6.523438 14.71875 -5.921875 C 13.8125 -4.535156 12.796875 -3.363281 11.671875 -2.40625 C 10.566406 -1.4375 9.429688 -0.742188 8.265625 -0.328125 C 7.660156 -0.109375 6.988281 0 6.25 0 C 5.476562 0 4.816406 -0.109375 4.265625 -0.328125 C 3.734375 -0.523438 3.179688 -0.910156 2.609375 -1.484375 C 2.023438 -2.066406 1.582031 -2.660156 1.28125 -3.265625 C 0.78125 -4.285156 0.4375 -5.457031 0.25 -6.78125 C 0.0820312 -7.769531 0 -8.875 0 -10.09375 C 0 -10.445312 0.015625 -10.832031 0.046875 -11.25 C 0.148438 -14.226562 0.546875 -16.820312 1.234375 -19.03125 C 1.953125 -21.257812 2.921875 -22.984375 4.140625 -24.203125 C 4.628906 -24.691406 5.148438 -25.0625 5.703125 -25.3125 C 6.253906 -25.59375 6.796875 -25.734375 7.328125 -25.734375 L 7.40625 -25.734375 C 8.039062 -25.734375 8.644531 -25.550781 9.21875 -25.1875 C 9.800781 -24.800781 10.269531 -24.222656 10.625 -23.453125 Z M 5.546875 -22.125 C 5.015625 -21.570312 4.503906 -20.648438 4.015625 -19.359375 C 3.515625 -18.066406 3.140625 -16.726562 2.890625 -15.34375 C 2.785156 -14.6875 2.675781 -13.875 2.5625 -12.90625 C 2.476562 -11.914062 2.460938 -11.363281 2.515625 -11.25 C 2.546875 -11.082031 2.660156 -11.066406 2.859375 -11.203125 C 3.023438 -11.316406 3.410156 -11.664062 4.015625 -12.25 C 5.085938 -13.269531 6.023438 -14.398438 6.828125 -15.640625 C 7.628906 -16.878906 8.164062 -18.035156 8.4375 -19.109375 C 8.6875 -20.160156 8.703125 -21.113281 8.484375 -21.96875 C 8.265625 -22.851562 7.890625 -23.296875 7.359375 -23.296875 C 7.140625 -23.296875 6.851562 -23.179688 6.5 -22.953125 C 6.164062 -22.734375 5.847656 -22.457031 5.546875 -22.125 Z M 5.546875 -22.125 "/></g></g></g><g fill="#ffffff" fill-opacity="1"><g transform="translate(87.389406, 35.248719)"><g><path d="M 5.375 -11.828125 C 6.675781 -10.890625 7.847656 -10.226562 8.890625 -9.84375 C 9.960938 -9.457031 11.148438 -9.25 12.453125 -9.21875 L 13.78125 -9.21875 C 14.164062 -9.21875 14.425781 -9.234375 14.5625 -9.265625 C 14.863281 -9.296875 15.15625 -9.1875 15.4375 -8.9375 C 15.707031 -8.6875 15.828125 -8.410156 15.796875 -8.109375 L 15.796875 -8.0625 C 15.773438 -7.570312 15.582031 -7.242188 15.21875 -7.078125 C 14.863281 -6.878906 14.160156 -6.753906 13.109375 -6.703125 C 12.585938 -6.671875 12.117188 -6.671875 11.703125 -6.703125 C 11.316406 -6.734375 10.914062 -6.785156 10.5 -6.859375 C 10.175781 -6.921875 9.890625 -6.976562 9.640625 -7.03125 C 9.390625 -7.0625 9.25 -7.0625 9.21875 -7.03125 C 9.164062 -7.03125 9.125 -6.921875 9.09375 -6.703125 C 9.039062 -6.503906 9 -6.269531 8.96875 -6 C 8.832031 -5.113281 8.476562 -4.300781 7.90625 -3.5625 C 7.351562 -2.8125 6.660156 -2.257812 5.828125 -1.90625 C 5.441406 -1.769531 4.890625 -1.6875 4.171875 -1.65625 L 3.890625 -1.65625 C 3.304688 -1.65625 2.878906 -1.707031 2.609375 -1.8125 C 1.535156 -2.257812 0.722656 -2.96875 0.171875 -3.9375 C -0.273438 -4.707031 -0.5 -5.519531 -0.5 -6.375 C -0.5 -6.625 -0.46875 -6.882812 -0.40625 -7.15625 C -0.300781 -8.007812 -0.015625 -8.796875 0.453125 -9.515625 C 0.890625 -10.253906 1.59375 -11.082031 2.5625 -12 C 2.84375 -12.25 3.066406 -12.425781 3.234375 -12.53125 C 3.390625 -12.644531 3.566406 -12.703125 3.765625 -12.703125 L 3.8125 -12.703125 C 4 -12.703125 4.203125 -12.617188 4.421875 -12.453125 C 4.671875 -12.316406 4.988281 -12.109375 5.375 -11.828125 Z M 2.484375 -8.15625 C 2.066406 -7.40625 1.898438 -6.671875 1.984375 -5.953125 C 2.097656 -5.265625 2.441406 -4.742188 3.015625 -4.390625 C 3.316406 -4.191406 3.609375 -4.078125 3.890625 -4.046875 C 4.160156 -4.023438 4.460938 -4.066406 4.796875 -4.171875 C 5.296875 -4.335938 5.722656 -4.695312 6.078125 -5.25 C 6.460938 -5.800781 6.628906 -6.351562 6.578125 -6.90625 C 6.546875 -7.425781 6.328125 -7.878906 5.921875 -8.265625 C 5.535156 -8.628906 4.984375 -8.921875 4.265625 -9.140625 C 4.117188 -9.171875 4.007812 -9.1875 3.9375 -9.1875 C 3.820312 -9.207031 3.738281 -9.21875 3.6875 -9.21875 C 3.4375 -9.25 3.226562 -9.179688 3.0625 -9.015625 C 2.925781 -8.847656 2.734375 -8.5625 2.484375 -8.15625 Z M 2.484375 -8.15625 "/></g></g></g><g fill="#ffffff" fill-opacity="1"><g transform="translate(101.618455, 35.248719)"><g><path d="M 8.359375 -12.453125 C 8.523438 -12.316406 8.785156 -11.832031 9.140625 -11 C 9.472656 -10.175781 9.816406 -9.226562 10.171875 -8.15625 C 10.253906 -7.90625 10.335938 -7.671875 10.421875 -7.453125 C 10.503906 -7.222656 10.5625 -7.082031 10.59375 -7.03125 C 10.613281 -7 10.832031 -7.097656 11.25 -7.328125 C 11.664062 -7.566406 12.148438 -7.867188 12.703125 -8.234375 C 13.054688 -8.421875 13.375 -8.597656 13.65625 -8.765625 C 13.957031 -8.929688 14.21875 -9.070312 14.4375 -9.1875 C 15.019531 -9.457031 15.472656 -9.304688 15.796875 -8.734375 C 15.941406 -8.453125 16.015625 -8.1875 16.015625 -7.9375 C 16.015625 -7.664062 15.898438 -7.421875 15.671875 -7.203125 C 15.429688 -7.035156 15.144531 -6.828125 14.8125 -6.578125 C 14.476562 -6.328125 14.035156 -6.023438 13.484375 -5.671875 C 12.960938 -5.367188 12.175781 -4.898438 11.125 -4.265625 C 11.125 -4.097656 11.148438 -3.875 11.203125 -3.59375 C 11.367188 -2.269531 11.425781 -0.988281 11.375 0.25 C 11.320312 1.457031 11.15625 2.65625 10.875 3.84375 C 10.6875 4.59375 10.359375 5.460938 9.890625 6.453125 C 9.421875 7.421875 8.953125 8.164062 8.484375 8.6875 C 7.515625 9.84375 6.34375 10.710938 4.96875 11.296875 C 3.96875 11.703125 3.015625 11.90625 2.109375 11.90625 C 1.722656 11.90625 1.351562 11.867188 1 11.796875 C -0.21875 11.546875 -1.15625 10.953125 -1.8125 10.015625 C -2.3125 9.296875 -2.5625 8.492188 -2.5625 7.609375 C -2.5625 7.335938 -2.535156 7.0625 -2.484375 6.78125 C -2.265625 5.40625 -1.460938 3.890625 -0.078125 2.234375 C 1.296875 0.609375 3.414062 -1.347656 6.28125 -3.640625 C 7 -4.222656 7.507812 -4.664062 7.8125 -4.96875 C 8.144531 -5.269531 8.3125 -5.460938 8.3125 -5.546875 C 8.3125 -5.816406 8.226562 -6.1875 8.0625 -6.65625 C 7.894531 -7.15625 7.769531 -7.40625 7.6875 -7.40625 C 7.632812 -7.40625 7.539062 -7.296875 7.40625 -7.078125 C 7.269531 -6.859375 7.128906 -6.609375 6.984375 -6.328125 C 6.429688 -5.273438 5.703125 -4.351562 4.796875 -3.5625 C 3.859375 -2.789062 2.976562 -2.332031 2.15625 -2.1875 C 1.351562 -2.082031 0.632812 -2.25 0 -2.6875 C -0.632812 -3.125 -1.035156 -3.734375 -1.203125 -4.515625 C -1.285156 -4.816406 -1.328125 -5.078125 -1.328125 -5.296875 C -1.296875 -5.515625 -1.238281 -5.816406 -1.15625 -6.203125 C -0.820312 -7.503906 -0.09375 -8.664062 1.03125 -9.6875 C 2.164062 -10.675781 3.585938 -11.445312 5.296875 -12 C 5.628906 -12.101562 5.945312 -12.210938 6.25 -12.328125 C 6.550781 -12.441406 6.769531 -12.523438 6.90625 -12.578125 C 7.019531 -12.628906 7.144531 -12.679688 7.28125 -12.734375 C 7.394531 -12.765625 7.503906 -12.78125 7.609375 -12.78125 C 7.742188 -12.78125 7.867188 -12.753906 7.984375 -12.703125 C 8.117188 -12.640625 8.242188 -12.554688 8.359375 -12.453125 Z M 5.171875 -9.3125 C 4.585938 -9.195312 3.910156 -8.835938 3.140625 -8.234375 C 2.335938 -7.597656 1.785156 -6.988281 1.484375 -6.40625 C 1.316406 -6.050781 1.222656 -5.707031 1.203125 -5.375 C 1.203125 -5.019531 1.285156 -4.800781 1.453125 -4.71875 C 1.617188 -4.632812 1.851562 -4.632812 2.15625 -4.71875 C 2.457031 -4.820312 2.757812 -5 3.0625 -5.25 C 3.414062 -5.53125 3.773438 -5.914062 4.140625 -6.40625 C 4.523438 -6.90625 4.851562 -7.445312 5.125 -8.03125 C 5.375 -8.550781 5.523438 -8.90625 5.578125 -9.09375 C 5.640625 -9.257812 5.585938 -9.34375 5.421875 -9.34375 L 5.34375 -9.34375 C 5.28125 -9.34375 5.222656 -9.332031 5.171875 -9.3125 Z M 1.40625 4.34375 C 0.550781 5.445312 0.0664062 6.441406 -0.046875 7.328125 C -0.148438 8.179688 0.140625 8.785156 0.828125 9.140625 C 1.179688 9.335938 1.734375 9.40625 2.484375 9.34375 C 3.222656 9.289062 3.867188 9.140625 4.421875 8.890625 C 5.335938 8.453125 6.148438 7.75 6.859375 6.78125 C 7.578125 5.820312 8.101562 4.691406 8.4375 3.390625 C 8.519531 3.085938 8.601562 2.726562 8.6875 2.3125 C 8.738281 1.90625 8.796875 1.476562 8.859375 1.03125 C 8.929688 0.226562 8.957031 -0.515625 8.9375 -1.203125 C 8.9375 -1.890625 8.867188 -2.273438 8.734375 -2.359375 C 8.566406 -2.359375 8.039062 -1.984375 7.15625 -1.234375 C 6.25 -0.492188 5.328125 0.328125 4.390625 1.234375 C 3.722656 1.847656 3.113281 2.429688 2.5625 2.984375 C 2.039062 3.554688 1.65625 4.007812 1.40625 4.34375 Z M 1.40625 4.34375 "/></g></g></g><g fill="#ffffff" fill-opacity="1"><g transform="translate(115.847504, 35.248719)"><g><path d="M 5.375 -11.828125 C 6.675781 -10.890625 7.847656 -10.226562 8.890625 -9.84375 C 9.960938 -9.457031 11.148438 -9.25 12.453125 -9.21875 L 13.78125 -9.21875 C 14.164062 -9.21875 14.425781 -9.234375 14.5625 -9.265625 C 14.863281 -9.296875 15.15625 -9.1875 15.4375 -8.9375 C 15.707031 -8.6875 15.828125 -8.410156 15.796875 -8.109375 L 15.796875 -8.0625 C 15.773438 -7.570312 15.582031 -7.242188 15.21875 -7.078125 C 14.863281 -6.878906 14.160156 -6.753906 13.109375 -6.703125 C 12.585938 -6.671875 12.117188 -6.671875 11.703125 -6.703125 C 11.316406 -6.734375 10.914062 -6.785156 10.5 -6.859375 C 10.175781 -6.921875 9.890625 -6.976562 9.640625 -7.03125 C 9.390625 -7.0625 9.25 -7.0625 9.21875 -7.03125 C 9.164062 -7.03125 9.125 -6.921875 9.09375 -6.703125 C 9.039062 -6.503906 9 -6.269531 8.96875 -6 C 8.832031 -5.113281 8.476562 -4.300781 7.90625 -3.5625 C 7.351562 -2.8125 6.660156 -2.257812 5.828125 -1.90625 C 5.441406 -1.769531 4.890625 -1.6875 4.171875 -1.65625 L 3.890625 -1.65625 C 3.304688 -1.65625 2.878906 -1.707031 2.609375 -1.8125 C 1.535156 -2.257812 0.722656 -2.96875 0.171875 -3.9375 C -0.273438 -4.707031 -0.5 -5.519531 -0.5 -6.375 C -0.5 -6.625 -0.46875 -6.882812 -0.40625 -7.15625 C -0.300781 -8.007812 -0.015625 -8.796875 0.453125 -9.515625 C 0.890625 -10.253906 1.59375 -11.082031 2.5625 -12 C 2.84375 -12.25 3.066406 -12.425781 3.234375 -12.53125 C 3.390625 -12.644531 3.566406 -12.703125 3.765625 -12.703125 L 3.8125 -12.703125 C 4 -12.703125 4.203125 -12.617188 4.421875 -12.453125 C 4.671875 -12.316406 4.988281 -12.109375 5.375 -11.828125 Z M 2.484375 -8.15625 C 2.066406 -7.40625 1.898438 -6.671875 1.984375 -5.953125 C 2.097656 -5.265625 2.441406 -4.742188 3.015625 -4.390625 C 3.316406 -4.191406 3.609375 -4.078125 3.890625 -4.046875 C 4.160156 -4.023438 4.460938 -4.066406 4.796875 -4.171875 C 5.296875 -4.335938 5.722656 -4.695312 6.078125 -5.25 C 6.460938 -5.800781 6.628906 -6.351562 6.578125 -6.90625 C 6.546875 -7.425781 6.328125 -7.878906 5.921875 -8.265625 C 5.535156 -8.628906 4.984375 -8.921875 4.265625 -9.140625 C 4.117188 -9.171875 4.007812 -9.1875 3.9375 -9.1875 C 3.820312 -9.207031 3.738281 -9.21875 3.6875 -9.21875 C 3.4375 -9.25 3.226562 -9.179688 3.0625 -9.015625 C 2.925781 -8.847656 2.734375 -8.5625 2.484375 -8.15625 Z M 2.484375 -8.15625 "/></g></g></g></g></g></svg>